<?xml version="1.0" encoding="UTF-8"?>
<!DOCTYPE svg PUBLIC "-//W3C//DTD SVG 1.1//EN" "http://www.w3.org/Graphics/SVG/1.1/DTD/svg11.dtd">
<svg xmlns="http://www.w3.org/2000/svg" version="1.1" width="512px" height="512px" style="shape-rendering:geometricPrecision; text-rendering:geometricPrecision; image-rendering:optimizeQuality; fill-rule:evenodd; clip-rule:evenodd" xmlns:xlink="http://www.w3.org/1999/xlink">
<g><path style="opacity:0.994" fill="#27536b" d="M 233.5,-0.5 C 248.167,-0.5 262.833,-0.5 277.5,-0.5C 372.885,11.0951 442.719,59.4284 487,144.5C 500.178,172.559 508.345,201.893 511.5,232.5C 511.5,247.5 511.5,262.5 511.5,277.5C 500.71,368.421 455.71,436.587 376.5,482C 345.276,498.217 312.276,508.051 277.5,511.5C 262.833,511.5 248.167,511.5 233.5,511.5C 133.193,499.016 61.693,447.016 19,355.5C 8.70393,330.316 2.20393,304.316 -0.5,277.5C -0.5,262.833 -0.5,248.167 -0.5,233.5C 11.9821,133.195 63.9821,61.6947 155.5,19C 180.687,8.70332 206.687,2.20332 233.5,-0.5 Z"/></g>
<g><path style="opacity:1" fill="#f4f6f7" d="M 382.5,72.5 C 383.167,73.5 383.833,74.5 384.5,75.5C 385.427,87.173 386.427,98.8397 387.5,110.5C 400.484,111.98 413.484,113.313 426.5,114.5C 424.833,115.167 423.167,115.833 421.5,116.5C 410.26,117.582 399.094,118.915 388,120.5C 386.698,133.889 385.031,147.222 383,160.5C 381.609,146.811 380.109,133.145 378.5,119.5C 366.5,118.5 354.5,117.5 342.5,116.5C 341.833,115.833 341.167,115.167 340.5,114.5C 353.158,113.094 365.825,111.76 378.5,110.5C 379.614,97.807 380.947,85.1404 382.5,72.5 Z"/></g>
<g><path style="opacity:1" fill="#8ea4b1" d="M 384.5,75.5 C 383.833,74.5 383.167,73.5 382.5,72.5C 382.343,71.1266 382.51,69.7932 383,68.5C 383.977,70.74 384.477,73.0733 384.5,75.5 Z"/></g>
<g><path style="opacity:1" fill="#f7f9fa" d="M 131.5,82.5 C 134.563,84.0512 137.229,86.2179 139.5,89C 137,91.5 134.5,94 132,96.5C 129.65,94.3171 127.483,91.9837 125.5,89.5C 127.523,87.1472 129.523,84.8138 131.5,82.5 Z"/></g>
<g><path style="opacity:1" fill="#f1f4f5" d="M 87.5,88.5 C 88.1667,89.5 88.8333,90.5 89.5,91.5C 89.4105,98.7089 90.4105,105.709 92.5,112.5C 101.172,113.641 109.838,114.808 118.5,116C 109.524,117.164 100.524,117.997 91.5,118.5C 90.8809,126.903 89.7143,135.237 88,143.5C 86.9827,135.178 86.1494,126.845 85.5,118.5C 76.1631,117.778 66.8298,116.944 57.5,116C 66.7684,114.606 76.1018,113.439 85.5,112.5C 86.0933,104.493 86.76,96.4934 87.5,88.5 Z"/></g>
<g><path style="opacity:1" fill="#8ea5b1" d="M 89.5,91.5 C 88.8333,90.5 88.1667,89.5 87.5,88.5C 87.3433,87.1266 87.51,85.7932 88,84.5C 88.977,86.74 89.477,89.0733 89.5,91.5 Z"/></g>
<g><path style="opacity:1" fill="#f47659" d="M 339.5,139.5 C 338.89,140.391 338.557,141.391 338.5,142.5C 337.193,151.352 335.527,160.019 333.5,168.5C 321.113,165.038 308.779,161.371 296.5,157.5C 294.261,153.36 291.761,149.36 289,145.5C 286.41,141.606 287.243,138.773 291.5,137C 293.764,136.764 295.931,136.264 298,135.5C 300.41,129.682 303.077,124.015 306,118.5C 315.263,110.779 324.763,110.613 334.5,118C 340.265,124.166 341.932,131.333 339.5,139.5 Z"/></g>
<g><path style="opacity:1" fill="#f1f1f1" d="M 225.5,190.5 C 223.378,199.579 219.045,207.412 212.5,214C 237.333,238.833 262.167,263.667 287,288.5C 294.004,282.662 300.504,276.329 306.5,269.5C 311.833,263.5 317.5,257.833 323.5,252.5C 333.663,270.708 347.663,274.208 365.5,263C 368.448,259.89 370.781,256.39 372.5,252.5C 380.833,260.167 388.833,268.167 396.5,276.5C 383.5,289.167 370.5,301.833 357.5,314.5C 354.203,311.704 351.036,308.704 348,305.5C 336.965,316.702 325.798,327.702 314.5,338.5C 300.66,356.087 282.66,366.42 260.5,369.5C 234.549,371.687 212.882,363.187 195.5,344C 189.984,343.827 184.651,343.327 179.5,342.5C 195.167,342.5 210.833,342.5 226.5,342.5C 227.5,343.833 228.5,343.833 229.5,342.5C 239.525,340.528 249.525,338.361 259.5,336C 263.667,334.5 266.5,331.667 268,327.5C 270.324,318.019 269.991,308.685 267,299.5C 261.924,293.418 255.424,290.751 247.5,291.5C 247.665,288.15 247.498,284.817 247,281.5C 245.192,279.604 243.025,279.104 240.5,280C 237.833,282.667 235.167,285.333 232.5,288C 230.866,288.494 229.199,288.66 227.5,288.5C 227.167,288.5 226.833,288.5 226.5,288.5C 218.167,288.5 209.833,288.5 201.5,288.5C 201.667,267.164 201.5,245.831 201,224.5C 183.811,235.325 165.645,237.325 146.5,230.5C 119.007,218.207 106.34,196.873 108.5,166.5C 113.928,140.235 129.595,123.402 155.5,116C 192.927,112.444 216.76,128.61 227,164.5C 227.809,173.254 227.309,181.921 225.5,190.5 Z"/></g>
<g><path style="opacity:1" fill="#8da4b0" d="M 340.5,114.5 C 341.167,115.167 341.833,115.833 342.5,116.5C 340.345,116.628 338.345,116.128 336.5,115C 337.793,114.51 339.127,114.343 340.5,114.5 Z"/></g>
<g><path style="opacity:1" fill="#839ca9" d="M 426.5,114.5 C 429.598,114.413 429.932,114.913 427.5,116C 425.527,116.495 423.527,116.662 421.5,116.5C 423.167,115.833 424.833,115.167 426.5,114.5 Z"/></g>
<g><path style="opacity:1" fill="#52bee5" d="M 160.5,124.5 C 177.653,122.278 192.819,126.611 206,137.5C 217.575,152.354 218.575,168.021 209,184.5C 191.733,206.044 169.567,213.877 142.5,208C 119.4,199.633 110.567,183.467 116,159.5C 125.147,140.512 139.98,128.845 160.5,124.5 Z"/></g>
<g><path style="opacity:1" fill="#fefdfd" d="M 338.5,142.5 C 338.557,141.391 338.89,140.391 339.5,139.5C 341.463,138.04 343.296,136.373 345,134.5C 347.35,136.683 349.517,139.016 351.5,141.5C 349.517,143.984 347.35,146.317 345,148.5C 342.963,146.294 340.797,144.294 338.5,142.5 Z"/></g>
<g><path style="opacity:1" fill="#72d4ee" d="M 192.5,147.5 C 200.816,147.977 205.983,152.31 208,160.5C 209.891,168.196 207.724,174.363 201.5,179C 193.03,179.888 187.863,176.054 186,167.5C 183.712,159.18 185.878,152.513 192.5,147.5 Z"/></g>
<g><path style="opacity:1" fill="#e4e4e5" d="M 296.5,157.5 C 308.779,161.371 321.113,165.038 333.5,168.5C 328.647,187.246 323.48,205.912 318,224.5C 306.25,231.959 294.417,239.292 282.5,246.5C 289.908,254.911 297.908,262.578 306.5,269.5C 300.504,276.329 294.004,282.662 287,288.5C 262.167,263.667 237.333,238.833 212.5,214C 219.045,207.412 223.378,199.579 225.5,190.5C 232.175,197.008 239.008,203.341 246,209.5C 258.167,205 270.333,200.5 282.5,196C 287.588,183.323 292.255,170.489 296.5,157.5 Z"/></g>
<g><path style="opacity:1" fill="#cbcbcb" d="M 108.5,166.5 C 106.34,196.873 119.007,218.207 146.5,230.5C 146.5,251.167 146.5,271.833 146.5,292.5C 145.448,292.649 144.448,292.483 143.5,292C 130.631,279.298 117.965,266.465 105.5,253.5C 112.41,248.096 118.91,242.096 125,235.5C 125.667,234.833 125.667,234.167 125,233.5C 121.333,229.833 117.667,226.167 114,222.5C 107.297,229.035 100.797,235.702 94.5,242.5C 88.1708,237.004 82.3375,231.004 77,224.5C 71.5773,213.813 72.5773,203.813 80,194.5C 89.3683,184.964 98.8683,175.631 108.5,166.5 Z"/></g>
<g><path style="opacity:1" fill="#f1f1f1" d="M 105.5,253.5 C 101.5,250.167 97.8333,246.5 94.5,242.5C 100.797,235.702 107.297,229.035 114,222.5C 117.667,226.167 121.333,229.833 125,233.5C 125.667,234.167 125.667,234.833 125,235.5C 118.91,242.096 112.41,248.096 105.5,253.5 Z"/></g>
<g><path style="opacity:1" fill="#fefefe" d="M 226.5,288.5 C 226.5,306.5 226.5,324.5 226.5,342.5C 210.833,342.5 195.167,342.5 179.5,342.5C 186.508,329.356 184.508,317.856 173.5,308C 164.73,302.722 155.73,302.222 146.5,306.5C 146.5,301.833 146.5,297.167 146.5,292.5C 146.5,271.833 146.5,251.167 146.5,230.5C 165.645,237.325 183.811,235.325 201,224.5C 201.5,245.831 201.667,267.164 201.5,288.5C 209.833,288.5 218.167,288.5 226.5,288.5 Z"/></g>
<g><path style="opacity:1" fill="#f47759" d="M 372.5,252.5 C 370.781,256.39 368.448,259.89 365.5,263C 347.663,274.208 333.663,270.708 323.5,252.5C 334.613,244.455 346.947,242.289 360.5,246C 365.01,247.418 369.01,249.585 372.5,252.5 Z"/></g>
<g><path style="opacity:1" fill="#f6f8f9" d="M 469.5,257.5 C 472.744,259.071 475.411,261.405 477.5,264.5C 475.5,267.167 473.167,269.5 470.5,271.5C 467.833,269.5 465.5,267.167 463.5,264.5C 466.266,262.741 468.266,260.407 469.5,257.5 Z"/></g>
<g><path style="opacity:1" fill="#cacacb" d="M 396.5,276.5 C 399.845,279.678 403.345,282.678 407,285.5C 417.435,278.123 426.935,279.123 435.5,288.5C 417.833,305.5 400.5,322.833 383.5,340.5C 374.5,332.167 365.833,323.5 357.5,314.5C 370.5,301.833 383.5,289.167 396.5,276.5 Z"/></g>
<g><path style="opacity:1" fill="#f7785a" d="M 229.5,342.5 C 227.513,324.864 226.847,306.864 227.5,288.5C 229.199,288.66 230.866,288.494 232.5,288C 235.167,285.333 237.833,282.667 240.5,280C 243.025,279.104 245.192,279.604 247,281.5C 247.498,284.817 247.665,288.15 247.5,291.5C 255.424,290.751 261.924,293.418 267,299.5C 269.991,308.685 270.324,318.019 268,327.5C 266.5,331.667 263.667,334.5 259.5,336C 249.525,338.361 239.525,340.528 229.5,342.5 Z"/></g>
<g><path style="opacity:1" fill="#f1f4f5" d="M 50.5,279.5 C 53.3466,281.514 55.6799,284.014 57.5,287C 55.7201,289.784 53.5535,292.284 51,294.5C 48.5,292 46,289.5 43.5,287C 46.0386,284.63 48.3719,282.13 50.5,279.5 Z"/></g>
<g><path style="opacity:1" fill="#fabeb0" d="M 226.5,288.5 C 226.833,288.5 227.167,288.5 227.5,288.5C 226.847,306.864 227.513,324.864 229.5,342.5C 228.5,343.833 227.5,343.833 226.5,342.5C 226.5,324.5 226.5,306.5 226.5,288.5 Z"/></g>
<g><path style="opacity:1" fill="#ef765a" d="M 435.5,288.5 C 439.702,291.516 442.869,295.183 445,299.5C 428.167,316.333 411.333,333.167 394.5,350C 390.183,347.869 386.516,344.702 383.5,340.5C 400.5,322.833 417.833,305.5 435.5,288.5 Z"/></g>
<g><path style="opacity:1" fill="#f47759" d="M 179.5,342.5 C 160.202,338.199 149.202,326.199 146.5,306.5C 155.73,302.222 164.73,302.722 173.5,308C 184.508,317.856 186.508,329.356 179.5,342.5 Z"/></g>
<g><path style="opacity:1" fill="#e5e5e5" d="M 314.5,338.5 C 314.369,339.239 314.536,339.906 315,340.5C 326.702,352.035 338.202,363.702 349.5,375.5C 349.649,376.552 349.483,377.552 349,378.5C 336.631,390.702 324.465,403.035 312.5,415.5C 297.035,400.535 281.701,385.368 266.5,370C 264.527,369.505 262.527,369.338 260.5,369.5C 282.66,366.42 300.66,356.087 314.5,338.5 Z"/></g>
<g><path style="opacity:1" fill="#cacaca" d="M 349.5,375.5 C 353.464,378.963 357.298,382.63 361,386.5C 368.76,380.409 376.926,379.909 385.5,385C 387.041,386.371 388.375,387.871 389.5,389.5C 372.167,406.5 354.833,423.5 337.5,440.5C 328.833,432.5 320.5,424.167 312.5,415.5C 324.465,403.035 336.631,390.702 349,378.5C 349.483,377.552 349.649,376.552 349.5,375.5 Z"/></g>
<g><path style="opacity:1" fill="#f57659" d="M 389.5,389.5 C 392.964,392.462 396.297,395.629 399.5,399C 382.5,416 365.5,433 348.5,450C 344.183,447.869 340.516,444.702 337.5,440.5C 354.833,423.5 372.167,406.5 389.5,389.5 Z"/></g>
<g><path style="opacity:1" fill="#f3f5f6" d="M 165.5,398.5 C 166.982,407.313 168.149,416.313 169,425.5C 177.719,427.173 186.552,428.34 195.5,429C 186.485,430.131 177.485,431.298 168.5,432.5C 166.834,468.493 165.168,468.493 163.5,432.5C 154.176,431.371 144.843,430.205 135.5,429C 144.45,427.576 153.45,426.743 162.5,426.5C 163.939,417.218 164.939,407.884 165.5,398.5 Z"/></g>
<g><path style="opacity:1" fill="#f6f8f9" d="M 276.5,428.5 C 279.147,430.811 281.814,433.144 284.5,435.5C 282.5,438.167 280.167,440.5 277.5,442.5C 274.833,440.5 272.5,438.167 270.5,435.5C 272.523,433.147 274.523,430.814 276.5,428.5 Z"/></g>
</svg>
